# xmcd CD database file
#
# Track frame offsets:
#	150
#	18725
#	35052
#	57715
#	77845
#	93162
#	106565
#	128972
#	144702
#	163385
#	182075
#	202647
#	222530
#	238850
#	257552
#	273757
#
# Disc length: 3899 seconds
#
# Revision: 0
# Processed by: cddbd v1.5.1PL0 Copyright (c) Steve Scherf et al.
# Submitted via: CDex 1.51
#
DISCID=e90f3910
DTITLE=Bob Barnard - in Sweden Cornet Chop Suey
DYEAR=1995
DGENRE=Jazz
TTITLE0=The Song Is Ended [But The Melody Lingers On]
TTITLE1=West End Blues
TTITLE2=Black Stump Stomp
TTITLE3=Pour Jennifer
TTITLE4=Blue Turning Grey Over You
TTITLE5=Mahogany Hall Stomp
TTITLE6=Ne Orleans
TTITLE7=I Would Do Anything For You
TTITLE8=Sweet And Slow
TTITLE9=I'm Getting Sentimental Over You
TTITLE10=After My Laugher Came Tears
TTITLE11=Jelly In Mind
TTITLE12=Cornet Chop Suey
TTITLE13=Blame It On My Youth
TTITLE14=My Gal Sal
TTITLE15=Sweet As A Song
EXTD=YEAR: 1995
EXTT0=
EXTT1=
EXTT2=
EXTT3=
EXTT4=
EXTT5=
EXTT6=
EXTT7=
EXTT8=
EXTT9=
EXTT10=
EXTT11=
EXTT12=
EXTT13=
EXTT14=
EXTT15=
PLAYORDER=
